<!-- <svg viewBox="0 0 109 24" xmlns="http://www.w3.org/2000/svg" xmlns:xlink="http://www.w3.org/1999/xlink" xmlns:figma="http://www.figma.com/figma/ns"><title>Logo</title><g transform="translate(-1470)" figma:type="canvas"><g style="mix-blend-mode:normal" figma:type="vector" transform="translate(1470)" fill="#f40"><use xlink:href="#b" style="mix-blend-mode:normal"/><use xlink:href="#c" style="mix-blend-mode:normal"/><use xlink:href="#d" style="mix-blend-mode:normal"/><use xlink:href="#e" style="mix-blend-mode:normal"/><use xlink:href="#f" style="mix-blend-mode:normal"/></g></g><defs><path id="b" d="M22.735 23.171c.283.323.053.829-.376.829h-5.907c-.285 0-.556-.121-.745-.333l-9.414-10.526v10.36c0 .276-.224.5-.5.5h-5.293c-.276 0-.5-.224-.5-.5v-23c0-.276.224-.5.5-.5h5.293c.276 0 .5.224.5.5v9.815l9.141-9.99c.19-.207.457-.325.738-.325h5.762c.437 0 .664.521.366.841l-9.851 10.563 10.287 11.767z"/><path id="c" d="M45.991 24c-.199 0-.38-.118-.459-.301l-2.024-4.669h-10.67l-2.024 4.669c-.079.183-.259.301-.459.301h-5.212c-.366 0-.608-.381-.453-.712l10.782-23c.082-.176.259-.288.453-.288h4.358c.194 0 .37.112.453.287l10.815 23c.156.332-.086.713-.452.713h-5.108zm-11.135-9.668h6.635l-3.317-7.694-3.317 7.694z"/><path id="d" d="M55.525 24c-.276 0-.5-.224-.5-.5v-23c0-.276.224-.5.5-.5h5.293c.276 0 .5.224.5.5v18.428h9.759c.276 0 .5.224.5.5v4.072c0 .276-.224.5-.5.5h-15.552z"/><path id="e" d="M75.279.5c0-.276.224-.5.5-.5h9.315c2.667 0 4.959.477 6.874 1.43 1.938.953 3.42 2.338 4.446 4.153 1.026 1.793 1.539 3.926 1.539 6.4 0 2.496-.513 4.652-1.539 6.468-1.003 1.793-2.474 3.166-4.412 4.119-1.915.953-4.218 1.43-6.908 1.43h-9.315c-.276 0-.5-.224-.5-.5v-23zm9.37 18.462c2.371 0 4.138-.579 5.301-1.736 1.163-1.157 1.744-2.905 1.744-5.242 0-2.338-.581-4.074-1.744-5.209-1.163-1.157-2.93-1.736-5.301-1.736h-3.078v13.923h3.078z"/><path id="f" d="M102.913 24c-.276 0-.5-.224-.5-.5v-23c0-.276.224-.5.5-.5h5.293c.276 0 .5.224.5.5v23c0 .276-.224.5-.5.5h-5.293z"/></defs></svg> -->
<svg id="Layer_1" data-name="Layer 1" xmlns="http://www.w3.org/2000/svg" xmlns:xlink="http://www.w3.org/1999/xlink" viewBox="0 0 227.86 60"><defs><style>.cls-1{font-size:28.65px;fill:#eb0000;font-family:Impact;letter-spacing:0.05em;}.cls-2{letter-spacing:0.04em;}.cls-3{letter-spacing:0.01em;}.cls-4{fill:red;}.cls-5{fill:#fcee21;}.cls-6{fill:#39b54a;}.cls-7{fill:#3fa9f5;}.cls-8{fill:url(#radial-gradient);}</style><radialGradient id="radial-gradient" cx="30.38" cy="31.04" r="3.68" gradientTransform="translate(-0.38 -1.04)" gradientUnits="userSpaceOnUse"><stop offset="0" stop-color="#fff"/><stop offset="0.01" stop-color="#fff4f4"/><stop offset="0.06" stop-color="#ffbcbc"/><stop offset="0.12" stop-color="#ff8a8a"/><stop offset="0.17" stop-color="#ff5f5f"/><stop offset="0.23" stop-color="#ff3d3d"/><stop offset="0.28" stop-color="#f22"/><stop offset="0.34" stop-color="#ff0f0f"/><stop offset="0.4" stop-color="#ff0404"/><stop offset="0.46" stop-color="red"/><stop offset="1" stop-color="#f00000"/></radialGradient></defs><title>swakruta-logo-header2</title><text class="cls-1" transform="translate(72 41.53) scale(1.14 1)">S<tspan class="cls-2" x="16.24" y="0">W</tspan><tspan x="40.73" y="0">AKRU</tspan><tspan class="cls-3" x="107.47" y="0">T</tspan><tspan x="120.96" y="0">A</tspan></text><rect class="cls-4" x="34.16" y="29.98" width="4.75" height="20.26" transform="translate(-18.66 37.58) rotate(-45)"/><rect class="cls-4" x="20.5" y="42.1" width="4.77" height="12.88" transform="translate(-28.62 30.4) rotate(-45)"/><rect class="cls-4" x="34.16" y="41.03" width="4.75" height="20.26" transform="translate(25.19 113.16) rotate(-135)"/><rect class="cls-4" x="25.7" y="31.05" width="4.77" height="12.88" transform="translate(20.43 83.86) rotate(-135)"/><rect class="cls-4" x="26.31" y="42.1" width="4.77" height="12.88" transform="translate(13.67 103.16) rotate(-135)"/><rect class="cls-5" x="18.52" y="25.4" width="4.75" height="20.26" transform="translate(30.24 -4.37) rotate(45)"/><rect class="cls-5" x="10.07" y="15.44" width="4.77" height="12.88" transform="translate(18.12 -2.4) rotate(45)"/><rect class="cls-5" x="7.47" y="25.4" width="4.75" height="20.26" transform="translate(-23.24 17.37) rotate(-45)"/><rect class="cls-5" x="21.12" y="20.64" width="4.77" height="12.88" transform="translate(-13.27 24.56) rotate(-45)"/><rect class="cls-5" x="10.07" y="21.26" width="4.77" height="12.88" transform="translate(-16.94 16.92) rotate(-45)"/><rect class="cls-6" x="38.73" y="14.34" width="4.75" height="20.26" transform="translate(51.87 70.84) rotate(-135)"/><rect class="cls-6" x="47.15" y="31.68" width="4.77" height="12.88" transform="translate(56.62 100.1) rotate(-135)"/><rect class="cls-6" x="49.78" y="14.34" width="4.75" height="20.26" transform="translate(105.34 4.89) rotate(135)"/><rect class="cls-6" x="36.1" y="26.48" width="4.77" height="12.88" transform="translate(87.98 28.97) rotate(135)"/><rect class="cls-6" x="47.15" y="25.86" width="4.77" height="12.88" transform="translate(106.41 20.11) rotate(135)"/><rect class="cls-7" x="23.09" y="9.76" width="4.75" height="20.26" transform="translate(56.54 15.95) rotate(135)"/><rect class="cls-7" x="36.73" y="5.02" width="4.77" height="12.88" transform="translate(73.88 -8.1) rotate(135)"/><rect class="cls-7" x="23.09" y="-1.29" width="4.75" height="20.26" transform="translate(12.71 -15.42) rotate(45)"/><rect class="cls-7" x="31.53" y="16.07" width="4.77" height="12.88" transform="translate(24.85 -17.39) rotate(45)"/><rect class="cls-7" x="30.91" y="5.02" width="4.77" height="12.88" transform="translate(16.86 -20.19) rotate(45)"/><circle class="cls-8" cx="30" cy="30" r="3.68"/></svg>